<?xml version="1.0" encoding="UTF-8"?>
<svg width="530px" height="159px" viewBox="0 0 530 159" version="1.1" xmlns="http://www.w3.org/2000/svg" xmlns:xlink="http://www.w3.org/1999/xlink">
    <title>VIVES_Logo UAS_Pos</title>
    <g id="Page-1" stroke="none" stroke-width="1" fill="none" fill-rule="evenodd">
        <g id="VIVES_Logo-UAS_Pos" transform="translate(0.100000, 0.050000)">
            <g id="Group" transform="translate(0.000000, 18.645221)" fill-rule="nonzero">
                <polygon id="Path" fill="#1D1D1B" points="56.7451705 47.1372417 40.5948261 99.5429195 24.4312112 47.1372417 9.42934254e-15 47.1372417 9.42934254e-15 47.1372417 26.4350748 120.616664 54.6086007 120.616664 81.0436755 47.1372417"></polygon>
                <rect id="Rectangle" fill="#1D1D1B" x="86.643877" y="47.1372417" width="22.8254662" height="73.4794221"></rect>
                <polygon id="Path" fill="#1D1D1B" points="155.531665 99.5429195 171.69528 47.1372417 195.993785 47.1372417 169.55871 120.616664 141.385184 120.616664 114.950109 47.1372417 139.38132 47.1372417"></polygon>
                <g transform="translate(197.068705, 46.075592)" fill="#1D1D1B">
                    <path d="M74.3552831,43.1958676 L22.69276,43.1958676 C23.0510667,47.7609609 24.5373761,51.2511339 27.1649588,53.6663867 C29.7925416,56.0816395 33.0173022,57.2892659 36.8392407,57.2892659 C42.5323366,57.2892659 46.500252,54.913825 48.7164455,50.1762137 L73.0149504,50.1762137 C71.7675122,55.0067193 69.5247774,59.346212 66.2734756,63.2079624 C63.0221737,67.0697127 58.9480934,70.0954141 54.0645053,72.298337 C49.1676466,74.4879892 43.7001512,75.5894507 37.6487485,75.5894507 C30.3499076,75.5894507 23.8473039,74.0500588 18.154208,70.9845456 C12.461112,67.9057618 8.01545439,63.5264572 4.80396439,57.8200907 C1.605745,52.1137242 0,45.4386024 0,37.807996 C0,30.1773896 1.57920376,23.5022678 4.73761129,17.7959012 C7.89601881,12.0895347 12.3284058,7.69695952 18.0215018,4.63144633 C23.7145977,1.56593314 30.2570133,0.0265412397 37.6487485,0.0265412397 C45.0404838,0.0265412397 51.2644045,1.52612128 56.8778767,4.49874013 C62.4913489,7.4846296 66.8706535,11.7444986 70.029061,17.2783471 C73.1874685,22.8121955 74.7666723,29.2617168 74.7666723,36.6401814 C74.7666723,38.75021 74.6339661,40.9398623 74.3685537,43.2224089 M51.4103813,30.7082143 C51.4103813,26.846464 50.0700487,23.7676802 47.4026541,21.4851335 C44.7352595,19.2025869 41.3910633,18.0613136 37.3966068,18.0613136 C33.4021502,18.0613136 30.336637,19.1627751 27.7223249,21.3524273 C25.0947421,23.5420796 23.4757265,26.6606753 22.8520074,30.7082143 L51.4236519,30.7082143 L51.4103813,30.7082143 Z" id="Shape"></path>
                    <path d="M95.7077104,72.298337 C90.6383336,70.1086847 86.6306064,67.096254 83.6977994,63.2743155 C80.7649924,59.452377 79.1194356,55.1792374 78.7611288,50.4283555 L101.321183,50.4283555 C101.586595,52.9763145 102.794221,55.0332605 104.930791,56.6124643 C107.067361,58.1916681 109.694944,58.9879053 112.813539,58.9879053 C115.666723,58.9879053 117.869646,58.4438098 119.422308,57.3423484 C120.974971,56.2408869 121.757937,54.8209306 121.757937,53.0559382 C121.757937,50.9459096 120.643205,49.3932471 118.427012,48.38468 C116.197547,47.3761129 112.601209,46.2613808 107.611456,45.0272132 C102.276667,43.7930455 97.817739,42.5057954 94.2612128,41.1389216 C90.7046867,39.7720477 87.6259029,37.6222073 85.0514027,34.6894003 C82.4636318,31.7433227 81.1763817,27.7754074 81.1763817,22.7723837 C81.1763817,18.5523266 82.3574668,14.7171174 84.7196372,11.2534856 C87.0818075,7.78985386 90.5454393,5.04283555 95.1370737,3.02570133 C99.7154376,1.00856711 105.169662,0 111.486477,0 C120.828994,0 128.194188,2.28254662 133.582059,6.84763985 C138.969931,11.4127331 142.061986,17.4774063 142.858223,25.0151184 L121.757937,25.0151184 C121.39963,22.4671594 120.271628,20.4500252 118.347388,18.9637158 C116.436419,17.4774063 113.915001,16.720981 110.809676,16.720981 C108.142281,16.720981 106.085335,17.2252646 104.665379,18.2338317 C103.245422,19.2423988 102.528809,20.6225433 102.528809,22.3875357 C102.528809,24.4975643 103.656812,26.076768 105.939358,27.125147 C108.208634,28.173526 111.75189,29.2351755 116.555854,30.2835545 C122.076432,31.6902402 126.561902,33.0703847 130.038804,34.4372585 C133.515706,35.8041324 136.554678,37.9937846 139.182261,41.019486 C141.809844,44.0451873 143.163447,48.105997 143.256341,53.201915 C143.256341,57.5015958 142.035444,61.3500756 139.58038,64.720813 C137.125315,68.1048211 133.621871,70.7589451 129.030237,72.6831849 C124.438602,74.6074248 119.130354,75.5761801 113.078952,75.5761801 C106.576348,75.5761801 100.790358,74.4747186 95.720981,72.2850664" id="Path"></path>
                </g>
                <path d="M117.232656,0 C117.232656,10.5899546 108.646565,19.1627751 98.0698807,19.1627751 C87.4931967,19.1627751 78.9071057,10.576684 78.9071057,0 L60.7794389,0 C60.7794389,20.596002 77.4738787,37.2904418 98.0698807,37.2904418 C118.665883,37.2904418 135.360323,20.596002 135.360323,0 L117.232656,0 Z" id="Path" fill="#E30613"></path>
            </g>
            <line x1="358.956996" y1="-9.42934254e-15" x2="358.956996" y2="158" id="Path" stroke="#1D1D1B" stroke-width="1.5"></line>
            <g id="Group" transform="translate(376.779439, 17.742819)" fill="#E30613" fill-rule="nonzero">
                <path d="M3.31765496,30.4428019 C1.88442802,28.8237863 1.16781455,26.6872165 1.16781455,24.0330926 L1.16781455,0.91567277 C1.16781455,0.610448513 1.31379137,0.464471695 1.61901562,0.464471695 L3.95464472,0.464471695 C4.25986897,0.464471695 4.40584579,0.623719133 4.40584579,0.91567277 L4.40584579,24.4046699 C4.40584579,26.0900386 4.83050563,27.4436419 5.66655468,28.4787502 C6.50260373,29.5138586 7.6173358,30.0314127 8.98420964,30.0314127 C10.3510835,30.0314127 11.518898,29.5138586 12.3682177,28.4787502 C13.2175374,27.4436419 13.6554678,26.076768 13.6554678,24.4046699 L13.6554678,0.91567277 C13.6554678,0.610448513 13.8147153,0.464471695 14.1066689,0.464471695 L16.442298,0.464471695 C16.7475223,0.464471695 16.8934991,0.623719133 16.8934991,0.91567277 L16.8934991,24.0330926 C16.8934991,26.6872165 16.163615,28.8237863 14.7171174,30.4428019 C13.2706199,32.0618176 11.34638,32.8713254 8.97093902,32.8713254 C6.59549807,32.8713254 4.72434067,32.0618176 3.29111372,30.4428019 L3.31765496,30.4428019 Z" id="Path"></path>
                <path d="M35.2998488,10.9349908 C36.3216865,12.2222409 36.8392407,14.0005039 36.8392407,16.2963212 L36.8392407,32.048547 C36.8392407,32.3537712 36.6799933,32.5130186 36.3880396,32.5130186 L34.0524105,32.5130186 C33.7471863,32.5130186 33.6012095,32.3670418 33.6012095,32.048547 L33.6012095,16.5750042 C33.6012095,15.0754242 33.269444,13.9208802 32.6191836,13.0981018 C31.9556526,12.2753234 31.0532505,11.8639342 29.8987065,11.8639342 C28.6778095,11.8639342 27.7223249,12.3018646 27.0322526,13.1909961 C26.3421804,14.0801277 25.9971443,15.2877541 25.9971443,16.8138754 L25.9971443,32.0618176 C25.9971443,32.3670418 25.8378969,32.5262893 25.5459432,32.5262893 L23.2103141,32.5262893 C22.9050899,32.5262893 22.7591131,32.3803124 22.7591131,32.0618176 L22.7591131,9.80698807 C22.7591131,9.50176382 22.9183605,9.34251638 23.2103141,9.34251638 L25.5459432,9.34251638 C25.8511675,9.34251638 25.9971443,9.50176382 25.9971443,9.80698807 L25.9971443,11.2667563 C25.9971443,11.2667563 26.0236855,11.3729212 26.0900386,11.3994625 C26.1563917,11.4260037 26.1962036,11.3994625 26.2227448,11.3065681 C26.7668402,10.5501428 27.4701831,9.96623551 28.3062322,9.59465816 C29.1422812,9.2230808 30.0446834,9.0240215 30.9868974,9.0240215 C32.8447841,9.0240215 34.2912817,9.66101125 35.3131194,10.9482614 L35.2998488,10.9349908 Z" id="Path"></path>
                <path d="M42.2669242,4.39257517 C41.7891819,3.90156224 41.5635814,3.29111372 41.5635814,2.56122963 C41.5635814,1.83134554 41.8024525,1.18108517 42.2669242,0.703342852 C42.7446666,0.225600538 43.3551151,0 44.124811,0 C44.894507,0 45.4651436,0.238871157 45.9296153,0.703342852 C46.4073576,1.18108517 46.6329582,1.79153368 46.6329582,2.56122963 C46.6329582,3.33092558 46.394087,3.90156224 45.9296153,4.39257517 C45.451873,4.88358811 44.8546951,5.12245926 44.124811,5.12245926 C43.3949269,5.12245926 42.7446666,4.88358811 42.2669242,4.39257517 Z M42.519066,32.048547 L42.519066,9.79371745 C42.519066,9.4884932 42.6650428,9.32924576 42.9702671,9.32924576 L45.3058962,9.32924576 C45.6111204,9.32924576 45.7570973,9.4884932 45.7570973,9.79371745 L45.7570973,32.048547 C45.7570973,32.3537712 45.5978498,32.5130186 45.3058962,32.5130186 L42.9702671,32.5130186 C42.6650428,32.5130186 42.519066,32.3670418 42.519066,32.048547 L42.519066,32.048547 Z" id="Shape"></path>
                <path d="M55.6967915,32.0883588 L50.0169662,9.83352931 L49.9771544,9.64774063 C49.9771544,9.43541072 50.1098606,9.32924576 50.3885436,9.32924576 L53.0426676,9.32924576 C53.3213506,9.32924576 53.480598,9.46195196 53.5469511,9.74063497 L57.4883252,27.0986057 C57.5148665,27.1915001 57.5546783,27.2313119 57.5812196,27.2313119 C57.6077608,27.2313119 57.6475727,27.1915001 57.6741139,27.0986057 L61.5624055,9.74063497 C61.6287586,9.46195196 61.788006,9.32924576 62.0666891,9.32924576 L64.720813,9.36905762 C64.8800605,9.36905762 64.9862254,9.40886948 65.0658492,9.50176382 C65.1454729,9.59465816 65.1454729,9.71409373 65.0923904,9.87334117 L59.4656476,32.0750882 C59.4391063,32.3537712 59.2665883,32.4864774 58.961364,32.4864774 L56.2143457,32.4864774 C55.9356627,32.4864774 55.7764153,32.3537712 55.7100622,32.0750882 L55.6967915,32.0883588 Z" id="Path"></path>
                <path d="M82.0655132,22.1619352 L71.6215354,22.1619352 C71.5020998,22.1619352 71.4357467,22.2282883 71.4357467,22.3477238 L71.4357467,25.69192 C71.4357467,26.9791702 71.7940534,28.0142785 72.5106669,28.8237863 C73.2272804,29.6332941 74.1694944,30.0314127 75.3240383,30.0314127 C76.3060642,30.0314127 77.1288426,29.7394591 77.8189148,29.1422812 C78.5089871,28.5451033 78.9601881,27.7754074 79.1725181,26.8331933 C79.2654124,26.5545103 79.4379305,26.4218041 79.6768016,26.4218041 L81.9593482,26.5146985 C82.0787838,26.5146985 82.1849488,26.5545103 82.2778431,26.6474047 C82.3707374,26.740299 82.3972787,26.8597346 82.3707374,27.018982 C82.1318663,28.8237863 81.3887116,30.2437427 80.1545439,31.3053922 C78.9203763,32.3670418 77.3013607,32.884596 75.3240383,32.884596 C73.1609273,32.884596 71.4224761,32.2476062 70.1219553,30.9603561 C68.8214346,29.673106 68.1711742,27.9877373 68.1711742,25.8777087 L68.1711742,15.9910969 C68.1711742,13.9208802 68.8214346,12.2355115 70.1219553,10.9349908 C71.4224761,9.63447002 73.1476566,8.98420964 75.3240383,8.98420964 C77.50042,8.98420964 79.2654124,9.63447002 80.5659331,10.9349908 C81.8664539,12.2355115 82.5167143,13.9208802 82.5167143,15.9910969 L82.5167143,21.7107341 C82.5167143,22.0159583 82.3574668,22.1752058 82.0655132,22.1752058 L82.0655132,22.1619352 Z M72.5239375,13.0317487 C71.807324,13.8412565 71.4490173,14.9029061 71.4490173,16.2166975 L71.4490173,19.2822107 C71.4490173,19.4016462 71.5153704,19.4679993 71.634806,19.4679993 L79.1459768,19.4679993 C79.2654124,19.4679993 79.3317655,19.4016462 79.3317655,19.2822107 L79.3317655,16.2166975 C79.3317655,14.9029061 78.9601881,13.8412565 78.230304,13.0317487 C77.50042,12.2222409 76.5316647,11.8241223 75.3505795,11.8241223 C74.1694944,11.8241223 73.2538216,12.2355115 72.5372081,13.0317487 L72.5239375,13.0317487 Z" id="Shape"></path>
                <path d="M97.1276667,9.60792878 C97.3399966,9.72736435 97.4196204,9.92642365 97.3532673,10.2051067 L96.8091718,12.5805476 C96.7826306,12.8592306 96.5968419,12.952125 96.2650764,12.8592306 C95.8934991,12.673442 95.442298,12.5805476 94.884932,12.5805476 C94.6460608,12.5805476 94.4602721,12.5938182 94.3408366,12.6203595 C93.2393751,12.6867126 92.336973,13.2573492 91.6336301,14.3322694 C90.9302873,15.4204603 90.5852511,16.7342516 90.5852511,18.2869142 L90.5852511,32.0220057 C90.5852511,32.32723 90.4260037,32.4864774 90.1340501,32.4864774 L87.798421,32.4864774 C87.4931967,32.4864774 87.3472199,32.3405006 87.3472199,32.0220057 L87.3472199,9.76717621 C87.3472199,9.46195196 87.5064673,9.30270452 87.798421,9.30270452 L90.1340501,9.30270452 C90.4392743,9.30270452 90.5852511,9.46195196 90.5852511,9.76717621 L90.5852511,12.5141945 C90.5852511,12.6070889 90.6117924,12.6469007 90.6516042,12.6469007 C90.6914161,12.6469007 90.7444986,12.6203595 90.8108517,12.5540064 C91.6999832,10.2316479 93.1464808,9.07710398 95.163615,9.07710398 C95.9333109,9.07710398 96.5835713,9.24962204 97.1276667,9.58138754 L97.1276667,9.60792878 Z" id="Path"></path>
                <path d="M101.69276,31.1063329 C100.41878,30.0181421 99.7950613,28.5849152 99.7950613,26.7801109 L99.7950613,26.461616 C99.7950613,26.1563917 99.9543088,26.0104149 100.259533,26.0104149 L102.462456,26.0104149 C102.76768,26.0104149 102.926928,26.1696624 102.926928,26.461616 L102.926928,26.740299 C102.926928,27.7223249 103.285234,28.5451033 104.001848,29.2086343 C104.718461,29.8854359 105.660675,30.2172014 106.815219,30.2172014 C107.916681,30.2172014 108.792542,29.8854359 109.469343,29.2086343 C110.132874,28.5318327 110.47791,27.682513 110.47791,26.6474047 C110.47791,25.8511675 110.26558,25.1876365 109.840921,24.6568117 C109.416261,24.1259869 108.911977,23.7013271 108.354611,23.3961028 C107.783974,23.0908785 106.947925,22.69276 105.806652,22.201747 C104.612296,21.7107341 103.63027,21.2329918 102.860575,20.7552495 C102.077608,20.2775071 101.414077,19.6139761 100.84344,18.7381152 C100.272804,17.8622543 99.9941206,16.7607929 99.9941206,15.4204603 C99.9941206,13.4696792 100.591299,11.9302873 101.798925,10.8022846 C103.006551,9.67428187 104.625567,9.10364522 106.669242,9.10364522 C108.712918,9.10364522 110.398287,9.68755249 111.619184,10.8420964 C112.840081,11.9966403 113.450529,13.5493029 113.450529,15.4602721 L113.450529,15.5929783 C113.450529,15.8982026 113.291282,16.0441794 112.999328,16.0441794 L110.8893,16.0441794 C110.584075,16.0441794 110.438098,15.8982026 110.438098,15.5929783 L110.438098,15.3142953 C110.438098,14.279187 110.093062,13.4165967 109.40299,12.7530657 C108.712918,12.0762641 107.823786,11.7444986 106.722325,11.7444986 C105.620863,11.7444986 104.745003,12.0895347 104.094742,12.7796069 C103.431211,13.4696792 103.112716,14.3189988 103.112716,15.3142953 C103.112716,16.0441794 103.311776,16.6678985 103.709894,17.1721821 C104.108013,17.6764656 104.599026,18.0878549 105.169662,18.4063497 C105.75357,18.7248446 106.563077,19.1096926 107.598186,19.5741643 C108.845624,20.1182597 109.880732,20.6490845 110.69024,21.1268268 C111.499748,21.6178397 112.203091,22.307912 112.813539,23.1837729 C113.423988,24.0729044 113.729212,25.1743659 113.729212,26.4748866 C113.729212,28.3725853 113.105493,29.8721653 111.858055,31.0134386 C110.610616,32.1414413 108.911977,32.7120779 106.775407,32.7120779 C104.638838,32.7120779 102.98001,32.1679825 101.719301,31.0930623 L101.69276,31.1063329 Z" id="Path"></path>
                <path d="M117.935999,4.39257517 C117.458256,3.90156224 117.232656,3.29111372 117.232656,2.56122963 C117.232656,1.83134554 117.471527,1.18108517 117.935999,0.703342852 C118.413741,0.225600538 119.024189,0 119.793885,0 C120.563581,0 121.134218,0.238871157 121.59869,0.703342852 C122.076432,1.18108517 122.302033,1.79153368 122.302033,2.56122963 C122.302033,3.33092558 122.063161,3.90156224 121.59869,4.39257517 C121.120947,4.88358811 120.52377,5.12245926 119.793885,5.12245926 C119.064001,5.12245926 118.413741,4.88358811 117.935999,4.39257517 Z M118.18814,32.048547 L118.18814,9.79371745 C118.18814,9.4884932 118.334117,9.32924576 118.639342,9.32924576 L120.974971,9.32924576 C121.280195,9.32924576 121.426172,9.4884932 121.426172,9.79371745 L121.426172,32.048547 C121.426172,32.3537712 121.266924,32.5130186 120.974971,32.5130186 L118.639342,32.5130186 C118.334117,32.5130186 118.18814,32.3670418 118.18814,32.048547 L118.18814,32.048547 Z" id="Shape"></path>
                <path d="M135.041828,11.7710398 L131.564925,11.7710398 C131.44549,11.7710398 131.379137,11.8373929 131.379137,11.9568285 L131.379137,25.9706031 C131.379137,27.3772888 131.618008,28.346044 132.109021,28.8768688 C132.600034,29.4076936 133.343188,29.6598354 134.351755,29.6332941 L134.802956,29.6332941 C135.108181,29.6332941 135.267428,29.7925416 135.267428,30.0844952 L135.267428,32.048547 C135.267428,32.3537712 135.108181,32.5130186 134.802956,32.5130186 L133.661683,32.5130186 C131.856879,32.5130186 130.490005,32.1281707 129.561062,31.3452041 C128.632118,30.5622375 128.167647,29.0891987 128.167647,26.9260877 L128.167647,11.9568285 C128.167647,11.8373929 128.101293,11.7710398 127.981858,11.7710398 L126.190324,11.7710398 C125.8851,11.7710398 125.739123,11.625063 125.739123,11.3065681 L125.739123,9.79371745 C125.739123,9.4884932 125.8851,9.32924576 126.190324,9.32924576 L127.981858,9.32924576 C128.101293,9.32924576 128.167647,9.26289266 128.167647,9.14345708 L128.167647,4.02099782 C128.167647,3.71577356 128.313623,3.55652612 128.618848,3.55652612 L130.914665,3.55652612 C131.219889,3.55652612 131.365866,3.71577356 131.365866,4.02099782 L131.365866,9.14345708 C131.365866,9.26289266 131.432219,9.32924576 131.551655,9.32924576 L135.028557,9.32924576 C135.333781,9.32924576 135.479758,9.4884932 135.479758,9.79371745 L135.479758,11.3065681 C135.479758,11.6117924 135.320511,11.7710398 135.028557,11.7710398 L135.041828,11.7710398 Z" id="Path"></path>
                <path d="M138.611624,41.5237695 C138.545271,41.4308752 138.51873,41.3247102 138.51873,41.2052747 L138.51873,39.3739291 C138.51873,39.0687049 138.677977,38.922728 138.983202,38.922728 C139.925416,38.8961868 140.66857,38.7103981 141.199395,38.3786326 C141.73022,38.0468671 142.168151,37.4496892 142.499916,36.5870989 C142.831682,35.7245087 143.176718,34.4239879 143.508483,32.6457248 C143.535024,32.5793717 143.548295,32.5262893 143.535024,32.4864774 C143.521754,32.4466655 143.508483,32.4068537 143.508483,32.3670418 L137.695952,9.84679993 L137.642869,9.71409373 C137.642869,9.47522258 137.802117,9.34251638 138.107341,9.34251638 L140.575676,9.34251638 C140.8809,9.34251638 141.053418,9.47522258 141.07996,9.75390559 L145.114228,27.7488661 C145.140769,27.8417605 145.180581,27.8815723 145.207122,27.8815723 C145.233664,27.8815723 145.273476,27.8417605 145.300017,27.7488661 L149.281203,9.75390559 C149.334285,9.47522258 149.506803,9.34251638 149.785486,9.34251638 L152.346716,9.38232824 C152.492693,9.38232824 152.612128,9.4221401 152.691752,9.51503444 C152.771376,9.60792878 152.771376,9.72736435 152.718293,9.88661179 L146.361666,34.5168822 C145.817571,36.5605577 145.273476,38.0734084 144.72938,39.0554342 C144.198555,40.0374601 143.495212,40.7142617 142.645893,41.0991097 C141.796573,41.4839577 140.588947,41.6697463 139.023014,41.6697463 L138.797413,41.6697463 C138.797413,41.6697463 138.677977,41.6299345 138.611624,41.5370401 L138.611624,41.5237695 Z" id="Path"></path>
                <path d="M2.38871157,75.7354275 C1.08819083,74.4481774 0.437930455,72.7628087 0.437930455,70.6527801 L0.437930455,60.8059802 C0.437930455,58.7357635 1.10146145,57.0371241 2.40198219,55.7233328 C3.71577356,54.4095414 5.45422476,53.759281 7.6173358,53.759281 C9.78044683,53.759281 11.5719805,54.4095414 12.8857719,55.7233328 C14.1995632,57.0371241 14.8498236,58.7357635 14.8498236,60.8059802 L14.8498236,70.6527801 C14.8498236,72.7628087 14.1862926,74.4481774 12.8857719,75.7354275 C11.5719805,77.0226776 9.82025869,77.6596674 7.6173358,77.6596674 C5.4144129,77.6596674 3.6759617,77.0226776 2.37544095,75.7354275 L2.38871157,75.7354275 Z M10.4970603,73.5855871 C11.240215,72.7893499 11.6117924,71.7409709 11.6117924,70.4271796 L11.6117924,60.9917689 C11.6117924,59.6779775 11.240215,58.6163279 10.4970603,57.8068201 C9.75390559,56.9973123 8.79842096,56.5991937 7.63060642,56.5991937 C6.46279187,56.5991937 5.52057786,57.0105829 4.79069377,57.8068201 C4.06080968,58.6163279 3.68923232,59.6779775 3.68923232,60.9917689 L3.68923232,70.4271796 C3.68923232,71.7409709 4.06080968,72.7893499 4.79069377,73.5855871 C5.52057786,74.3818243 6.46279187,74.7799429 7.63060642,74.7799429 C8.79842096,74.7799429 9.74063497,74.3818243 10.4970603,73.5855871 Z" id="Shape"></path>
                <path d="M24.8426004,48.8889635 C24.3515874,49.6719301 24.1127163,50.8795565 24.1127163,52.5251134 L24.1127163,53.9450697 C24.1127163,54.0645053 24.1790694,54.1308584 24.298505,54.1308584 L27.8284898,54.1308584 C28.1337141,54.1308584 28.2929615,54.2901058 28.2929615,54.5953301 L28.2929615,56.1081807 C28.2929615,56.413405 28.1337141,56.5726524 27.8284898,56.5726524 L24.298505,56.5726524 C24.1790694,56.5726524 24.1127163,56.6390055 24.1127163,56.7584411 L24.1127163,76.8634302 C24.1127163,77.1686545 23.9534688,77.3146313 23.6615152,77.3146313 L21.365698,77.3146313 C21.0604737,77.3146313 20.9144969,77.1553838 20.9144969,76.8634302 L20.9144969,56.7584411 C20.9144969,56.6390055 20.8481438,56.5726524 20.7287082,56.5726524 L18.8973627,56.5726524 C18.5921384,56.5726524 18.4461616,56.4266756 18.4461616,56.1081807 L18.4461616,54.5953301 C18.4461616,54.2901058 18.605409,54.1308584 18.8973627,54.1308584 L20.7287082,54.1308584 C20.8481438,54.1308584 20.9144969,54.0645053 20.9144969,53.9450697 L20.9144969,52.4853015 C20.9144969,49.8311776 21.4055098,47.9069377 22.3742651,46.7125819 C23.3430203,45.5182261 24.9885772,44.9210482 27.2711238,44.9210482 L27.9081136,44.9210482 C28.2133378,44.9210482 28.3593146,45.0802956 28.3593146,45.3855199 L28.3195028,47.2566773 C28.3195028,47.5619016 28.1602553,47.7078784 27.8683017,47.7078784 L27.3242063,47.7078784 C26.1696624,47.7078784 25.3336133,48.0927264 24.855871,48.8756929 L24.8426004,48.8889635 Z" id="Path"></path>
                <path d="M53.865446,76.8767008 L52.7241727,71.1968755 C52.7241727,71.1968755 52.6976314,71.0907106 52.6578196,71.0641693 C52.6180077,71.0376281 52.5649252,71.0243575 52.4985721,71.0243575 L44.2044347,71.0243575 C44.2044347,71.0243575 44.0849992,71.0376281 44.0451873,71.0641693 C43.9921048,71.0907106 43.9788342,71.143793 43.9788342,71.1968755 L42.8375609,76.8767008 C42.8110197,77.1553838 42.6385016,77.28809 42.3332773,77.28809 L39.9976482,77.28809 C39.8384008,77.28809 39.7322358,77.2482782 39.6526121,77.1553838 C39.5729884,77.0624895 39.5597178,76.9430539 39.586259,76.7838065 L46.4471695,45.6509323 C46.5135226,45.3722493 46.67277,45.2395431 46.951453,45.2395431 L49.6984714,45.2395431 C50.0036956,45.2395431 50.1762137,45.3722493 50.2027549,45.6509323 L57.1565597,76.7838065 L57.1565597,76.8767008 C57.1565597,77.1553838 57.0238535,77.28809 56.7451705,77.28809 L54.3697295,77.28809 C54.0910465,77.28809 53.9317991,77.1553838 53.865446,76.8767008 L53.865446,76.8767008 Z M44.7087183,68.3569629 L51.9412061,68.3569629 C52.0341005,68.3569629 52.0739123,68.2906098 52.0739123,68.1711742 L48.4112212,50.1762137 C48.38468,50.0833193 48.3448681,50.0435075 48.3183269,50.0435075 C48.2917857,50.0435075 48.2519738,50.0833193 48.2254326,50.1762137 L44.5627415,68.1711742 C44.5627415,68.2906098 44.6025533,68.3569629 44.6954477,68.3569629 L44.7087183,68.3569629 Z" id="Shape"></path>
                <path d="M73.3201747,55.7100622 C74.4747186,57.0105829 75.0586259,58.6959516 75.0586259,60.7661683 L75.0586259,70.6527801 C75.0586259,72.7893499 74.4747186,74.4879892 73.3201747,75.7619688 C72.1656308,77.0226776 70.6129683,77.6596674 68.6887284,77.6596674 C67.8394087,77.6596674 67.0299009,77.50042 66.2602049,77.1819251 C65.490509,76.8634302 64.826978,76.3591466 64.2430707,75.6956157 C64.1767176,75.6292626 64.1236351,75.6159919 64.0838233,75.6425332 C64.0440114,75.6690744 64.0174702,75.7221569 64.0174702,75.7752394 L64.0174702,85.7149336 C64.0174702,86.0201579 63.8582227,86.1794053 63.5662691,86.1794053 L61.23064,86.1794053 C60.9254158,86.1794053 60.7794389,86.0201579 60.7794389,85.7149336 L60.7794389,54.5820595 C60.7794389,54.2768352 60.9254158,54.1175878 61.23064,54.1175878 L63.5662691,54.1175878 C63.8714934,54.1175878 64.0174702,54.2768352 64.0174702,54.5820595 L64.0174702,55.6304384 C64.0174702,55.6304384 64.0440114,55.7233328 64.1103645,55.749874 C64.1767176,55.7631446 64.2298001,55.749874 64.2961532,55.6835209 C64.8402486,55.0465312 65.5037796,54.5555182 66.2867462,54.2370233 C67.0697127,53.9185285 67.8659499,53.759281 68.6887284,53.759281 C70.6129683,53.759281 72.1523602,54.4095414 73.3201747,55.7100622 L73.3201747,55.7100622 Z M70.7324038,57.8200907 C69.9892491,57.0105829 69.0337645,56.6124643 67.8659499,56.6124643 C66.6981354,56.6124643 65.8090039,57.0238535 65.0923904,57.8200907 C64.3757769,58.6295985 64.0174702,59.6912481 64.0174702,61.0050395 L64.0174702,70.4404502 C64.0174702,71.7542416 64.3757769,72.8158911 65.0923904,73.625399 C65.8090039,74.4349068 66.7379473,74.8330254 67.8659499,74.8330254 C68.9939526,74.8330254 69.9759785,74.4349068 70.7324038,73.625399 C71.4888292,72.8158911 71.8604065,71.7542416 71.8604065,70.4404502 L71.8604065,61.0050395 C71.8604065,59.6912481 71.4888292,58.6295985 70.7324038,57.8200907 Z" id="Shape"></path>
                <path d="M92.9208802,55.7100622 C94.0754242,57.0105829 94.6593314,58.6959516 94.6593314,60.7661683 L94.6593314,70.6527801 C94.6593314,72.7893499 94.0754242,74.4879892 92.9208802,75.7619688 C91.7663363,77.0226776 90.2136738,77.6596674 88.2894339,77.6596674 C87.4401142,77.6596674 86.6306064,77.50042 85.8609105,77.1819251 C85.0912145,76.8634302 84.4276835,76.3591466 83.8437762,75.6956157 C83.7774231,75.6292626 83.7243407,75.6159919 83.6845288,75.6425332 C83.6447169,75.6690744 83.6181757,75.7221569 83.6181757,75.7752394 L83.6181757,85.7149336 C83.6181757,86.0201579 83.4589283,86.1794053 83.1669746,86.1794053 L80.8313455,86.1794053 C80.5261213,86.1794053 80.3801445,86.0201579 80.3801445,85.7149336 L80.3801445,54.5820595 C80.3801445,54.2768352 80.5261213,54.1175878 80.8313455,54.1175878 L83.1669746,54.1175878 C83.4721989,54.1175878 83.6181757,54.2768352 83.6181757,54.5820595 L83.6181757,55.6304384 C83.6181757,55.6304384 83.6447169,55.7233328 83.71107,55.749874 C83.7774231,55.7631446 83.8305056,55.749874 83.8968587,55.6835209 C84.4409541,55.0465312 85.1044851,54.5555182 85.8874517,54.2370233 C86.6704183,53.9185285 87.4666555,53.759281 88.2894339,53.759281 C90.2136738,53.759281 91.7530657,54.4095414 92.9208802,55.7100622 L92.9208802,55.7100622 Z M90.3331094,57.8200907 C89.5899546,57.0105829 88.63447,56.6124643 87.4666555,56.6124643 C86.2988409,56.6124643 85.4097094,57.0238535 84.6930959,57.8200907 C83.9764824,58.6295985 83.6181757,59.6912481 83.6181757,61.0050395 L83.6181757,70.4404502 C83.6181757,71.7542416 83.9764824,72.8158911 84.6930959,73.625399 C85.4097094,74.4349068 86.3386528,74.8330254 87.4666555,74.8330254 C88.5946582,74.8330254 89.576684,74.4349068 90.3331094,73.625399 C91.0895347,72.8158911 91.461112,71.7542416 91.461112,70.4404502 L91.461112,61.0050395 C91.461112,59.6912481 91.0895347,58.6295985 90.3331094,57.8200907 Z" id="Shape"></path>
                <path d="M99.4632958,76.836889 L99.4632958,45.7040148 C99.4632958,45.3987905 99.6225433,45.2528137 99.9144969,45.2528137 L102.250126,45.2528137 C102.55535,45.2528137 102.701327,45.4120611 102.701327,45.7040148 L102.701327,76.836889 C102.701327,77.1421132 102.54208,77.28809 102.250126,77.28809 L99.9144969,77.28809 C99.6092726,77.28809 99.4632958,77.1288426 99.4632958,76.836889 Z" id="Path"></path>
                <path d="M108.142281,49.1809172 C107.664539,48.6899042 107.438938,48.0794557 107.438938,47.3495716 C107.438938,46.6196876 107.67781,45.9694272 108.142281,45.4916849 C108.620024,45.0139425 109.230472,44.788342 110.000168,44.788342 C110.769864,44.788342 111.340501,45.0272132 111.804972,45.4916849 C112.282715,45.9694272 112.508315,46.5798757 112.508315,47.3495716 C112.508315,48.1192676 112.269444,48.6899042 111.804972,49.1809172 C111.32723,49.6719301 110.730052,49.9108013 110.000168,49.9108013 C109.270284,49.9108013 108.620024,49.6719301 108.142281,49.1809172 Z M108.394423,76.836889 L108.394423,54.5820595 C108.394423,54.2768352 108.5404,54.1175878 108.845624,54.1175878 L111.181253,54.1175878 C111.486477,54.1175878 111.632454,54.2768352 111.632454,54.5820595 L111.632454,76.836889 C111.632454,77.1421132 111.473207,77.28809 111.181253,77.28809 L108.845624,77.28809 C108.5404,77.28809 108.394423,77.1288426 108.394423,76.836889 Z" id="Shape"></path>
                <path d="M130.914665,66.9502772 L120.470687,66.9502772 C120.351251,66.9502772 120.284898,67.0166303 120.284898,67.1360658 L120.284898,70.4802621 C120.284898,71.7675122 120.643205,72.8026205 121.359819,73.6121283 C122.076432,74.4216361 123.018646,74.8197547 124.17319,74.8197547 C125.155216,74.8197547 125.977994,74.5278011 126.668067,73.9306232 C127.358139,73.3334453 127.80934,72.5637494 128.02167,71.6215354 C128.114564,71.3428523 128.287082,71.2101461 128.525953,71.2101461 L130.8085,71.3030405 C130.927935,71.3030405 131.0341,71.3428523 131.126995,71.4357467 C131.219889,71.528641 131.24643,71.6480766 131.219889,71.807324 C130.981018,73.6121283 130.237863,75.0320847 129.003696,76.0937343 C127.769528,77.1421132 126.150512,77.672938 124.17319,77.672938 C122.010079,77.672938 120.271628,77.0359483 118.971107,75.7486981 C117.670586,74.461448 117.020326,72.7760793 117.020326,70.6660507 L117.020326,60.7794389 C117.020326,58.7092222 117.670586,57.0238535 118.971107,55.7233328 C120.271628,54.422812 121.996808,53.7725517 124.17319,53.7725517 C126.349572,53.7725517 128.114564,54.422812 129.415085,55.7233328 C130.715606,57.0238535 131.365866,58.7092222 131.365866,60.7794389 L131.365866,66.4990761 C131.365866,66.8043004 131.206619,66.9502772 130.914665,66.9502772 L130.914665,66.9502772 Z M121.373089,57.8200907 C120.656476,58.6295985 120.298169,59.6912481 120.298169,61.0050395 L120.298169,64.0705527 C120.298169,64.1899882 120.364522,64.2563413 120.483958,64.2563413 L127.995129,64.2563413 C128.114564,64.2563413 128.180917,64.1899882 128.180917,64.0705527 L128.180917,61.0050395 C128.180917,59.6912481 127.80934,58.6295985 127.079456,57.8200907 C126.349572,57.0105829 125.380816,56.6124643 124.199731,56.6124643 C123.018646,56.6124643 122.102973,57.0238535 121.38636,57.8200907 L121.373089,57.8200907 Z" id="Shape"></path>
                <path d="M147.171174,45.2395431 L149.506803,45.2395431 C149.812028,45.2395431 149.971275,45.3987905 149.971275,45.6907442 L149.971275,76.8236183 C149.971275,77.1288426 149.812028,77.2748194 149.506803,77.2748194 L147.171174,77.2748194 C146.86595,77.2748194 146.706703,77.115572 146.706703,76.8236183 L146.706703,75.8150512 C146.706703,75.8150512 146.680161,75.7088863 146.640349,75.682345 C146.600538,75.6558038 146.547455,75.6690744 146.481102,75.7221569 C145.326558,77.009407 143.853519,77.6463968 142.088527,77.6463968 C140.137746,77.6463968 138.585083,76.9961364 137.417269,75.6956157 C136.262725,74.3950949 135.678817,72.7097262 135.678817,70.6395095 L135.678817,60.7528977 C135.678817,58.6163279 136.262725,56.9176886 137.417269,55.6437091 C138.571813,54.3830002 140.137746,53.7460104 142.088527,53.7460104 C143.893331,53.7460104 145.353099,54.3962708 146.481102,55.7100622 C146.547455,55.7764153 146.600538,55.7896859 146.640349,55.749874 C146.693432,55.7233328 146.706703,55.6702503 146.706703,55.6171678 L146.706703,45.6774735 C146.706703,45.3722493 146.86595,45.2262725 147.171174,45.2262725 L147.171174,45.2395431 Z M145.631782,73.5988577 C146.348396,72.7893499 146.706703,71.7409709 146.706703,70.4669914 L146.706703,60.9917689 C146.706703,59.6779775 146.348396,58.6163279 145.631782,57.8068201 C144.915169,56.9973123 143.986225,56.5991937 142.858223,56.5991937 C141.73022,56.5991937 140.748194,57.0105829 139.991769,57.8068201 C139.235344,58.6030573 138.863766,59.6779775 138.863766,60.9917689 L138.863766,70.4669914 C138.863766,71.7542416 139.235344,72.7893499 139.991769,73.5988577 C140.748194,74.4083655 141.690408,74.8064841 142.858223,74.8064841 C144.026037,74.8064841 144.915169,74.4083655 145.631782,73.5988577 Z" id="Shape"></path>
                <path d="M2.17638166,120.205275 C0.769695952,118.705695 0.0663530993,116.754913 0.0663530993,114.339661 L0.0663530993,113.291282 C0.0663530993,112.986057 0.212329918,112.840081 0.517554174,112.840081 L2.76028893,112.840081 C3.06551319,112.840081 3.21149001,112.999328 3.21149001,113.291282 L3.21149001,114.206954 C3.21149001,115.82597 3.62287922,117.126491 4.44565765,118.121787 C5.26843608,119.117084 6.34335629,119.608097 7.65714766,119.608097 C8.97093902,119.608097 10.0060474,119.130354 10.8686377,118.18814 C11.731228,117.245926 12.1558878,115.985218 12.1558878,114.432555 C12.1558878,113.397447 11.9435579,112.508315 11.5321687,111.75189 C11.1207794,110.995464 10.5899546,110.345204 9.92642365,109.787838 C9.26289266,109.230472 8.17470183,108.367882 6.64858055,107.200067 C5.12245926,106.072065 3.91483286,105.103309 3.02570133,104.293801 C2.1365698,103.484294 1.41995632,102.515538 0.849319671,101.387536 C0.278683017,100.259533 -7.54347403e-14,98.932471 -7.54347403e-14,97.4063497 C-7.54347403e-14,95.0309088 0.690072232,93.1464808 2.05694608,91.7530657 C3.43709054,90.3596506 5.2153536,89.6695784 7.4182765,89.6695784 C9.74063497,89.6695784 11.5852511,90.4260037 12.9786662,91.9388544 C14.3720813,93.451705 15.0621535,95.4555686 15.0621535,97.9637158 L15.0621535,99.1049891 C15.0621535,99.4102133 14.9029061,99.5694608 14.6109525,99.5694608 L12.3284058,99.5694608 C12.0231816,99.5694608 11.8639342,99.4102133 11.8639342,99.1049891 L11.8639342,97.9106333 C11.8639342,96.2916177 11.4658156,94.9910969 10.6563077,93.9958004 C9.84679993,93.0005039 8.77187972,92.509491 7.43154712,92.509491 C6.21065009,92.509491 5.20208298,92.9474215 4.40584579,93.8100118 C3.6096086,94.6858727 3.21149001,95.9067697 3.21149001,97.4992441 C3.21149001,98.4414581 3.38400806,99.2775071 3.7423148,99.9941206 C4.08735092,100.710734 4.61817571,101.387536 5.32151856,102.037796 C6.02486141,102.674786 7.05996976,103.524105 8.44011423,104.559214 C10.2714598,105.899546 11.6383336,106.987737 12.5407358,107.837057 C13.4431379,108.673106 14.1332101,109.588779 14.6242231,110.584075 C15.115236,111.579372 15.3541072,112.773728 15.3541072,114.180413 C15.3541072,116.68856 14.6374937,118.692424 13.2042668,120.205275 C11.7710398,121.718125 9.92642365,122.474551 7.67041828,122.474551 C5.4144129,122.474551 3.58306736,121.731396 2.17638166,120.231816 L2.17638166,120.205275 Z" id="Path"></path>
                <path d="M21.4320511,120.52377 C20.1315303,119.236519 19.4812699,117.551151 19.4812699,115.441122 L19.4812699,105.55451 C19.4812699,103.484294 20.1448009,101.798925 21.4453217,100.498404 C22.7591131,99.1978834 24.4842936,98.547623 26.6208634,98.547623 C28.0540904,98.547623 29.3280699,98.8395767 30.4162607,99.423484 C31.5044515,100.007391 32.3670418,100.777087 32.9509491,101.732572 C33.548127,102.688056 33.8400806,103.749706 33.8400806,104.917521 L33.8400806,105.368722 C33.8400806,105.673946 33.6808332,105.833193 33.3888796,105.833193 L31.0532505,105.926088 C30.7480262,105.926088 30.6020494,105.780111 30.6020494,105.474887 L30.6020494,105.156392 C30.6020494,104.147825 30.230472,103.271964 29.4873173,102.528809 C28.7441626,101.785654 27.788678,101.414077 26.6208634,101.414077 C25.4530489,101.414077 24.5241055,101.812196 23.807492,102.621703 C23.0908785,103.431211 22.7325718,104.492861 22.7325718,105.806652 L22.7325718,115.242063 C22.7325718,116.555854 23.0908785,117.617504 23.807492,118.427012 C24.5241055,119.236519 25.4663195,119.634638 26.6208634,119.634638 C27.7754074,119.634638 28.730892,119.263061 29.4873173,118.519906 C30.230472,117.776751 30.6020494,116.90089 30.6020494,115.892323 L30.6020494,115.573828 C30.6020494,115.268604 30.7612968,115.122627 31.0532505,115.122627 L33.3888796,115.162439 C33.6941038,115.162439 33.8400806,115.321687 33.8400806,115.61364 L33.8400806,116.117924 C33.8400806,117.949269 33.1765496,119.46212 31.8494877,120.669746 C30.5224257,121.877373 28.7707038,122.474551 26.6075928,122.474551 C24.4444818,122.474551 22.7060306,121.837561 21.4055098,120.550311 L21.4320511,120.52377 Z" id="Path"></path>
                <path d="M38.5113388,93.9692592 C38.0335965,93.4782463 37.807996,92.8677977 37.807996,92.1379137 C37.807996,91.4080296 38.0468671,90.7577692 38.5113388,90.2800269 C38.9758105,89.8022846 39.5995296,89.5634134 40.3692256,89.5634134 C41.1389216,89.5634134 41.7095582,89.8022846 42.1740299,90.2800269 C42.6517722,90.7577692 42.8773728,91.3682177 42.8773728,92.1379137 C42.8773728,92.9076096 42.6385016,93.4782463 42.1740299,93.9692592 C41.6962876,94.4602721 41.0991097,94.6991433 40.3692256,94.6991433 C39.6393415,94.6991433 38.9890811,94.4602721 38.5113388,93.9692592 Z M38.7634806,121.625231 L38.7634806,99.3704015 C38.7634806,99.0651772 38.9094574,98.9192004 39.2146817,98.9192004 L41.5503108,98.9192004 C41.855535,98.9192004 42.0015118,99.0784478 42.0015118,99.3704015 L42.0015118,121.625231 C42.0015118,121.930455 41.8422644,122.076432 41.5503108,122.076432 L39.2146817,122.076432 C38.9094574,122.076432 38.7634806,121.917185 38.7634806,121.625231 Z" id="Shape"></path>
                <path d="M61.2837225,111.738619 L50.8397447,111.738619 C50.7203091,111.738619 50.653956,111.804972 50.653956,111.924408 L50.653956,115.268604 C50.653956,116.555854 51.0122627,117.590963 51.7288762,118.40047 C52.4454897,119.209978 53.3877037,119.608097 54.5422476,119.608097 C55.5242735,119.608097 56.3470519,119.316143 57.0371241,118.718965 C57.7271964,118.121787 58.1783974,117.352091 58.3907274,116.409877 C58.4836217,116.131194 58.6561398,115.998488 58.8950109,115.998488 L61.1775575,116.091382 C61.2969931,116.091382 61.4031581,116.131194 61.4960524,116.224089 C61.5889467,116.316983 61.615488,116.436419 61.5889467,116.595666 C61.3500756,118.40047 60.6069209,119.820427 59.3727532,120.882076 C58.1385856,121.930455 56.51957,122.46128 54.5422476,122.46128 C52.3791366,122.46128 50.6406854,121.82429 49.3401646,120.53704 C48.0396439,119.24979 47.3893835,117.564421 47.3893835,115.454393 L47.3893835,105.567781 C47.3893835,103.497564 48.0396439,101.812196 49.3401646,100.511675 C50.6406854,99.211154 52.3658659,98.5608937 54.5422476,98.5608937 C56.7186293,98.5608937 58.4836217,99.211154 59.7841424,100.511675 C61.0846632,101.812196 61.7349236,103.497564 61.7349236,105.567781 L61.7349236,111.287418 C61.7349236,111.592642 61.5756761,111.738619 61.2837225,111.738619 L61.2837225,111.738619 Z M51.7421468,102.608433 C51.0255333,103.417941 50.6672266,104.47959 50.6672266,105.793381 L50.6672266,108.858895 C50.6672266,108.97833 50.7335797,109.044683 50.8530153,109.044683 L58.3641861,109.044683 C58.4836217,109.044683 58.5499748,108.97833 58.5499748,108.858895 L58.5499748,105.793381 C58.5499748,104.47959 58.1783974,103.417941 57.4485134,102.608433 C56.7186293,101.798925 55.749874,101.400806 54.5687888,101.400806 C53.3877037,101.400806 52.4720309,101.798925 51.7554174,102.608433 L51.7421468,102.608433 Z" id="Shape"></path>
                <path d="M79.1194356,100.524945 C80.1412733,101.812196 80.6588275,103.590459 80.6588275,105.886276 L80.6588275,121.638502 C80.6588275,121.943726 80.49958,122.089703 80.2076264,122.089703 L77.8719973,122.089703 C77.5667731,122.089703 77.4207962,121.930455 77.4207962,121.638502 L77.4207962,106.164959 C77.4207962,104.665379 77.0890307,103.510835 76.4387704,102.688056 C75.7752394,101.865278 74.8728372,101.453889 73.7182933,101.453889 C72.4973963,101.453889 71.5419116,101.891819 70.8518394,102.780951 C70.1617672,103.670082 69.8167311,104.877709 69.8167311,106.390559 L69.8167311,121.638502 C69.8167311,121.943726 69.6574836,122.089703 69.36553,122.089703 L67.0299009,122.089703 C66.7246766,122.089703 66.5786998,121.930455 66.5786998,121.638502 L66.5786998,99.3836721 C66.5786998,99.0784478 66.7379473,98.932471 67.0299009,98.932471 L69.36553,98.932471 C69.6707542,98.932471 69.8167311,99.0917185 69.8167311,99.3836721 L69.8167311,100.84344 C69.8167311,100.84344 69.8432723,100.949605 69.9096254,100.976146 C69.9759785,101.002688 70.0157904,100.976146 70.0423316,100.883252 C70.586427,100.126827 71.2897699,99.5429195 72.1258189,99.1713422 C72.961868,98.7864942 73.8642701,98.6007055 74.8064841,98.6007055 C76.6643709,98.6007055 78.1108685,99.2376953 79.1327062,100.524945 L79.1194356,100.524945 Z" id="Path"></path>
                <path d="M87.4003024,120.52377 C86.0997816,119.236519 85.4495212,117.551151 85.4495212,115.441122 L85.4495212,105.55451 C85.4495212,103.484294 86.1130522,101.798925 87.413573,100.498404 C88.7273644,99.1978834 90.4525449,98.547623 92.5891147,98.547623 C94.0223417,98.547623 95.2963212,98.8395767 96.384512,99.423484 C97.4727028,100.007391 98.3352931,100.777087 98.9192004,101.732572 C99.5163783,102.688056 99.8083319,103.749706 99.8083319,104.917521 L99.8083319,105.368722 C99.8083319,105.673946 99.6490845,105.833193 99.3571309,105.833193 L97.0215018,105.926088 C96.7162775,105.926088 96.5703007,105.780111 96.5703007,105.474887 L96.5703007,105.156392 C96.5703007,104.147825 96.1987233,103.271964 95.4555686,102.528809 C94.7124139,101.785654 93.7569293,101.414077 92.5891147,101.414077 C91.4213002,101.414077 90.4923568,101.812196 89.7757433,102.621703 C89.0591299,103.431211 88.7008231,104.492861 88.7008231,105.806652 L88.7008231,115.242063 C88.7008231,116.555854 89.0591299,117.617504 89.7757433,118.427012 C90.4923568,119.236519 91.4345708,119.634638 92.5891147,119.634638 C93.7436587,119.634638 94.6991433,119.263061 95.4555686,118.519906 C96.1987233,117.776751 96.5703007,116.90089 96.5703007,115.892323 L96.5703007,115.573828 C96.5703007,115.268604 96.7295481,115.122627 97.0215018,115.122627 L99.3571309,115.162439 C99.6623551,115.162439 99.8083319,115.321687 99.8083319,115.61364 L99.8083319,116.117924 C99.8083319,117.949269 99.1448009,119.46212 97.817739,120.669746 C96.490677,121.877373 94.7389551,122.474551 92.5758441,122.474551 C90.4127331,122.474551 88.6742819,121.837561 87.3737611,120.550311 L87.4003024,120.52377 Z" id="Path"></path>
                <path d="M117.736939,111.738619 L107.292962,111.738619 C107.173526,111.738619 107.107173,111.804972 107.107173,111.924408 L107.107173,115.268604 C107.107173,116.555854 107.46548,117.590963 108.182093,118.40047 C108.898707,119.209978 109.840921,119.608097 110.995464,119.608097 C111.97749,119.608097 112.800269,119.316143 113.490341,118.718965 C114.180413,118.121787 114.631614,117.352091 114.843944,116.409877 C114.936839,116.131194 115.109357,115.998488 115.348228,115.998488 L117.630774,116.091382 C117.75021,116.091382 117.856375,116.131194 117.949269,116.224089 C118.042164,116.316983 118.068705,116.436419 118.042164,116.595666 C117.803292,118.40047 117.060138,119.820427 115.82597,120.882076 C114.591802,121.930455 112.972787,122.46128 110.995464,122.46128 C108.832353,122.46128 107.093902,121.82429 105.793381,120.53704 C104.492861,119.24979 103.8426,117.564421 103.8426,115.454393 L103.8426,105.567781 C103.8426,103.497564 104.492861,101.812196 105.793381,100.511675 C107.093902,99.211154 108.819083,98.5608937 110.995464,98.5608937 C113.171846,98.5608937 114.936839,99.211154 116.237359,100.511675 C117.53788,101.812196 118.18814,103.497564 118.18814,105.567781 L118.18814,111.287418 C118.18814,111.592642 118.028893,111.738619 117.736939,111.738619 L117.736939,111.738619 Z M108.195364,102.608433 C107.47875,103.417941 107.120443,104.47959 107.120443,105.793381 L107.120443,108.858895 C107.120443,108.97833 107.186797,109.044683 107.306232,109.044683 L114.817403,109.044683 C114.936839,109.044683 115.003192,108.97833 115.003192,108.858895 L115.003192,105.793381 C115.003192,104.47959 114.631614,103.417941 113.90173,102.608433 C113.171846,101.798925 112.203091,101.400806 111.022006,101.400806 C109.840921,101.400806 108.925248,101.798925 108.208634,102.608433 L108.195364,102.608433 Z" id="Shape"></path>
                <path d="M123.894507,120.683017 C122.620527,119.594826 121.996808,118.161599 121.996808,116.356795 L121.996808,116.0383 C121.996808,115.733076 122.156056,115.573828 122.46128,115.573828 L124.664203,115.573828 C124.969427,115.573828 125.128675,115.733076 125.128675,116.0383 L125.128675,116.316983 C125.128675,117.299009 125.486981,118.121787 126.203595,118.785318 C126.920208,119.46212 127.862422,119.793885 129.016966,119.793885 C130.118428,119.793885 130.994289,119.46212 131.67109,118.785318 C132.347892,118.108517 132.679657,117.259197 132.679657,116.224089 C132.679657,115.427852 132.467327,114.764321 132.042668,114.233496 C131.618008,113.702671 131.113724,113.278011 130.556358,112.972787 C129.998992,112.667563 129.149672,112.269444 128.008399,111.778431 C126.814043,111.287418 125.832017,110.809676 125.062322,110.331933 C124.279355,109.854191 123.615824,109.19066 123.045187,108.314799 C122.474551,107.438938 122.195868,106.337477 122.195868,104.997144 C122.195868,103.046363 122.793046,101.506971 124.000672,100.378969 C125.208298,99.2509659 126.827314,98.6803292 128.870989,98.6803292 C130.914665,98.6803292 132.600034,99.2642365 133.820931,100.41878 C135.041828,101.573324 135.652276,103.125987 135.652276,105.036956 L135.652276,105.169662 C135.652276,105.474887 135.493029,105.620863 135.201075,105.620863 L133.091047,105.620863 C132.785822,105.620863 132.639845,105.474887 132.639845,105.169662 L132.639845,104.890979 C132.639845,103.855871 132.294809,102.993281 131.604737,102.32975 C130.914665,101.666219 130.025533,101.321183 128.924072,101.321183 C127.82261,101.321183 126.94675,101.666219 126.296489,102.356291 C125.632958,103.046363 125.314463,103.895683 125.314463,104.90425 C125.314463,105.634134 125.513523,106.257853 125.911641,106.762137 C126.30976,107.26642 126.800773,107.67781 127.371409,107.996304 C127.955317,108.314799 128.764824,108.699647 129.799933,109.164119 C131.047371,109.708214 132.082479,110.225769 132.891987,110.716781 C133.701495,111.207794 134.404838,111.897867 135.015286,112.773728 C135.625735,113.662859 135.930959,114.764321 135.930959,116.064841 C135.930959,117.96254 135.30724,119.46212 134.059802,120.603393 C132.812364,121.731396 131.113724,122.302033 128.977154,122.302033 C126.840585,122.302033 125.181757,121.757937 123.921048,120.669746 L123.894507,120.683017 Z" id="Path"></path>
            </g>
        </g>
    </g>
</svg>